<svg width="33" height="32" viewBox="0 0 33 32" fill="none" xmlns="http://www.w3.org/2000/svg">
<path fill-rule="evenodd" clip-rule="evenodd" d="M11.8334 23.5312C11.5335 23.2311 11.365 22.8243 11.365 22.4C11.365 21.9757 11.5335 21.5688 11.8334 21.2688L17.1022 16L11.8334 10.7312C11.542 10.4294 11.3807 10.0253 11.3843 9.60575C11.388 9.18624 11.5563 8.78494 11.8529 8.48828C12.1496 8.19163 12.5509 8.02336 12.9704 8.01971C13.3899 8.01607 13.7941 8.17734 14.0958 8.46879L20.4958 14.8688C20.7958 15.1688 20.9643 15.5757 20.9643 16C20.9643 16.4243 20.7958 16.8311 20.4958 17.1312L14.0958 23.5312C13.7958 23.8311 13.3889 23.9997 12.9646 23.9997C12.5404 23.9997 12.1335 23.8311 11.8334 23.5312Z" fill="white"/>
</svg>
