<svg width="15" height="14" viewBox="0 0 15 14" fill="none" xmlns="http://www.w3.org/2000/svg">
<path d="M0.604618 9.50543V6.46206C0.604618 6.11443 0.886432 5.83261 1.23407 5.83261C1.5817 5.83261 1.86352 6.11443 1.86352 6.46206V9.50543C1.8634 9.85297 1.58163 10.1349 1.23407 10.1349C0.886506 10.1349 0.604737 9.85297 0.604618 9.50543Z" fill="#212121"/>
<path d="M9.37081 1.85951C9.54201 1.85955 9.70643 1.95617 9.82753 2.12814C10.4094 2.95502 10.9043 4.26724 11.4436 5.28707C11.5278 5.44624 11.651 5.55392 11.7872 5.59626L14.0542 6.29886C14.3366 6.3864 14.5386 6.74466 14.5386 7.15882L14.4759 10.0928C14.4758 10.5036 14.2616 10.9716 13.8015 10.9718L13.7702 10.9712V10.4542C13.7702 9.26121 12.8026 8.29417 11.6095 8.29417C10.4166 8.29426 9.44953 9.26126 9.44949 10.4542V10.9675L7.31403 10.9663V10.4542C7.31399 9.26121 6.347 8.29417 5.15398 8.29417C3.96096 8.29418 2.99397 9.26121 2.99393 10.4542V10.9626H2.98225C2.79184 10.9397 2.49588 10.8508 2.39214 10.7038C2.27108 10.5317 2.20226 10.2973 2.2022 10.054L2.26551 5.98967C2.26576 5.07177 3.39752 2.89302 3.93565 2.12814C4.05667 1.95617 4.22123 1.8597 4.39237 1.85951H9.37081Z" fill="#212121"/>
<path d="M6.81845 10.476C6.81845 11.3953 6.07325 12.1404 5.154 12.1404C4.23475 12.1404 3.48955 11.3953 3.48955 10.476C3.48955 9.55675 4.23475 8.81155 5.154 8.81155C6.07325 8.81155 6.81845 9.55675 6.81845 10.476Z" fill="#212121"/>
<path d="M13.2741 10.476C13.2741 11.3953 12.5289 12.1404 11.6097 12.1404C10.6904 12.1404 9.94522 11.3953 9.94522 10.476C9.94522 9.55675 10.6904 8.81155 11.6097 8.81155C12.5289 8.81155 13.2741 9.55675 13.2741 10.476Z" fill="#212121"/>
</svg>
