<svg width="15" height="14" viewBox="0 0 15 14" fill="none" xmlns="http://www.w3.org/2000/svg">
<path d="M4.77162 7.00001C4.77162 7.37131 4.62412 7.7274 4.36157 7.98996C4.09902 8.25251 3.74292 8.40001 3.37162 8.40001C3.00032 8.40001 2.64422 8.25251 2.38167 7.98996C2.11912 7.7274 1.97162 7.37131 1.97162 7.00001C1.97162 6.6287 2.11912 6.27261 2.38167 6.01006C2.64422 5.74751 3.00032 5.60001 3.37162 5.60001C3.74292 5.60001 4.09902 5.74751 4.36157 6.01006C4.62412 6.27261 4.77162 6.6287 4.77162 7.00001ZM8.97162 7.00001C8.97162 7.37131 8.82412 7.7274 8.56157 7.98996C8.29902 8.25251 7.94292 8.40001 7.57162 8.40001C7.20032 8.40001 6.84422 8.25251 6.58167 7.98996C6.31912 7.7274 6.17162 7.37131 6.17162 7.00001C6.17162 6.6287 6.31912 6.27261 6.58167 6.01006C6.84422 5.74751 7.20032 5.60001 7.57162 5.60001C7.94292 5.60001 8.29902 5.74751 8.56157 6.01006C8.82412 6.27261 8.97162 6.6287 8.97162 7.00001ZM11.7716 8.40001C12.1429 8.40001 12.499 8.25251 12.7616 7.98996C13.0241 7.7274 13.1716 7.37131 13.1716 7.00001C13.1716 6.6287 13.0241 6.27261 12.7616 6.01006C12.499 5.74751 12.1429 5.60001 11.7716 5.60001C11.4003 5.60001 11.0442 5.74751 10.7817 6.01006C10.5191 6.27261 10.3716 6.6287 10.3716 7.00001C10.3716 7.37131 10.5191 7.7274 10.7817 7.98996C11.0442 8.25251 11.4003 8.40001 11.7716 8.40001Z" fill="#212121"/>
</svg>
