<svg width="15" height="15" viewBox="0 0 15 15" fill="none" xmlns="http://www.w3.org/2000/svg">
<path fill-rule="evenodd" clip-rule="evenodd" d="M13.1716 6.1C13.1718 6.75602 13.0183 7.40297 12.7234 7.98899C12.4286 8.57501 12.0005 9.08381 11.4736 9.47462C10.9467 9.86542 10.3356 10.1274 9.68923 10.2395C9.04286 10.3516 8.37922 10.3107 7.75149 10.1201L7.57159 10.3L6.87159 11L6.17159 11.7H4.77159V13.1H1.97159V10.3L4.95149 7.3201C4.7768 6.74261 4.72858 6.13426 4.81012 5.53647C4.89165 4.93867 5.10102 4.36545 5.42398 3.85584C5.74694 3.34622 6.1759 2.91217 6.68167 2.58322C7.18745 2.25427 7.75815 2.03815 8.35495 1.94957C8.95174 1.86099 9.56061 1.90202 10.1401 2.06988C10.7196 2.23774 11.2562 2.52849 11.7132 2.92233C12.1703 3.31617 12.5371 3.80386 12.7888 4.3522C13.0404 4.90055 13.171 5.49667 13.1716 6.1ZM8.97159 3.3C8.78594 3.3 8.60789 3.37375 8.47661 3.50503C8.34534 3.6363 8.27159 3.81435 8.27159 4C8.27159 4.18566 8.34534 4.3637 8.47661 4.49498C8.60789 4.62625 8.78594 4.7 8.97159 4.7C9.34289 4.7 9.69899 4.8475 9.96154 5.11005C10.2241 5.37261 10.3716 5.7287 10.3716 6.1C10.3716 6.28566 10.4453 6.4637 10.5766 6.59498C10.7079 6.72625 10.8859 6.8 11.0716 6.8C11.2572 6.8 11.4353 6.72625 11.5666 6.59498C11.6978 6.4637 11.7716 6.28566 11.7716 6.1C11.7716 5.3574 11.4766 4.64521 10.9515 4.1201C10.4264 3.595 9.71419 3.3 8.97159 3.3Z" fill="#212121"/>
</svg>
