<svg width="15" height="14" viewBox="0 0 15 14" fill="none" xmlns="http://www.w3.org/2000/svg">
<path d="M12.7713 10.3095C13.3046 10.0312 13.3045 9.38857 12.7713 9.11038L12.0647 9.48412L11.6245 9.70899L11.4102 9.82176L10.9177 10.0827L8.02933 11.5898L7.92159 11.6374L7.57081 11.8243L7.22124 11.6374L7.16538 11.6128L7.11349 11.5898L4.22452 10.0823L3.73268 9.82176L3.51719 9.70899L3.07811 9.48412L2.37148 9.11038C1.83829 9.38857 1.83821 10.0312 2.37148 10.3095L7.11349 12.7839L7.22124 12.8315C7.44391 12.9136 7.69891 12.9136 7.92158 12.8315L8.02933 12.7839L12.7713 10.3095Z" fill="#212121"/>
<path fill-rule="evenodd" clip-rule="evenodd" d="M2.37148 6.40095C1.83829 6.67913 1.83821 7.32175 2.37148 7.60007L3.07811 7.96875L3.51718 8.19362L3.73267 8.3064L4.22452 8.56695L7.11349 10.0745L7.16538 10.0974L7.22124 10.122C7.44391 10.2042 7.69891 10.2042 7.92158 10.122L8.02933 10.0745L10.9177 8.56736L11.4102 8.3064L11.6244 8.19362L12.0647 7.96875L12.7713 7.60007C13.3046 7.32175 13.3045 6.67913 12.7713 6.40095L11.6244 6.99956L10.9176 7.37138L8.02955 8.87835C8.00969 8.88874 7.98941 8.89831 7.96883 8.90719L7.57081 9.11484L7.16759 8.90446L7.11323 8.87835L4.22471 7.3711L3.73267 7.11233L2.37148 6.40095Z" fill="#212121"/>
<path d="M12.7717 4.89022C13.305 4.61192 13.305 3.96921 12.7717 3.69092L8.02976 1.21644C7.74988 1.07039 7.39332 1.07039 7.11344 1.21644L2.37153 3.69092C1.83824 3.96921 1.83823 4.61192 2.37152 4.89022L7.11344 7.36468C7.39332 7.51073 7.74988 7.51073 8.02976 7.36468L12.7717 4.89022Z" fill="#212121"/>
</svg>
