<svg width="15" height="14" viewBox="0 0 15 14" fill="none" xmlns="http://www.w3.org/2000/svg">
<path d="M2.67218 6.43726C2.67218 6.43726 2.71915 5.55649 3.6546 5.78687L6.59894 7.22925C6.74463 7.3168 6.91241 7.52526 6.91241 7.83472V11.948C6.91241 12.427 6.5985 12.7953 6.09503 12.6042L5.83527 12.5017C5.42819 12.2912 5.42804 11.9481 5.42804 11.5476V8.74585C5.42804 8.34483 5.24922 8.22453 5.12921 8.16577L4.70734 7.96265C4.47479 7.84878 4.07257 7.59905 4.07257 8.37183V10.7498C4.07257 11.1552 3.6546 11.3443 3.43976 11.2439L3.09991 11.1111C2.67218 10.8543 2.67218 10.6824 2.67218 10.1199V6.43726ZM11.803 5.73608C11.9222 5.74145 12.0385 5.77691 12.14 5.8396C12.2413 5.90228 12.325 5.99041 12.3831 6.09448C12.4411 6.19856 12.4719 6.31615 12.472 6.4353V10.4695C12.4719 10.5994 12.4349 10.7271 12.3665 10.8376C12.2982 10.9481 12.2005 11.0374 12.0843 11.0955L9.28448 12.4958C9.17783 12.5491 9.05886 12.5745 8.93976 12.5691C8.82072 12.5637 8.7052 12.5272 8.60382 12.4646C8.50247 12.402 8.41877 12.3147 8.36066 12.2107C8.30256 12.1066 8.27188 11.9891 8.27179 11.8699V7.83472C8.2719 7.70496 8.30809 7.57792 8.37628 7.46753C8.44465 7.357 8.54225 7.26683 8.65851 7.20874L11.4583 5.80933C11.565 5.75602 11.6839 5.73073 11.803 5.73608ZM7.57159 1.36987C7.68012 1.36987 7.787 1.39562 7.88409 1.44409L11.2191 3.11108C11.3352 3.16928 11.4331 3.25935 11.5013 3.36987C11.5694 3.48029 11.6058 3.60733 11.6058 3.73706C11.6058 3.86695 11.5695 3.99471 11.5013 4.10522C11.4331 4.21562 11.3351 4.30489 11.2191 4.36304L7.88409 6.03003C7.78699 6.07851 7.68013 6.10425 7.57159 6.10425C7.46306 6.10425 7.3562 6.07851 7.25909 6.03003L3.92413 4.36304C3.80811 4.30489 3.71013 4.21562 3.64191 4.10522C3.57367 3.99471 3.53741 3.86695 3.53741 3.73706C3.53743 3.60733 3.57382 3.48029 3.64191 3.36987C3.71014 3.25935 3.80802 3.16928 3.92413 3.11108L7.25909 1.44409C7.35619 1.39562 7.46307 1.36987 7.57159 1.36987Z" fill="#212121"/>
</svg>
