<svg width="15" height="14" viewBox="0 0 15 14" fill="none" xmlns="http://www.w3.org/2000/svg">
<path d="M6.87161 4.20001C6.87161 4.75696 6.65036 5.2911 6.25653 5.68493C5.8627 6.07876 5.32856 6.30001 4.77161 6.30001C4.21465 6.30001 3.68051 6.07876 3.28668 5.68493C2.89286 5.2911 2.67161 4.75696 2.67161 4.20001C2.67161 3.64305 2.89286 3.10891 3.28668 2.71508C3.68051 2.32126 4.21465 2.10001 4.77161 2.10001C5.32856 2.10001 5.8627 2.32126 6.25653 2.71508C6.65036 3.10891 6.87161 3.64305 6.87161 4.20001ZM12.4716 4.20001C12.4716 4.47578 12.4173 4.74886 12.3118 5.00364C12.2062 5.25842 12.0515 5.48993 11.8565 5.68493C11.6615 5.87993 11.43 6.03462 11.1752 6.14015C10.9205 6.24569 10.6474 6.30001 10.3716 6.30001C10.0958 6.30001 9.82276 6.24569 9.56797 6.14015C9.31319 6.03462 9.08169 5.87993 8.88668 5.68493C8.69168 5.48993 8.53699 5.25842 8.43146 5.00364C8.32592 4.74886 8.27161 4.47578 8.27161 4.20001C8.27161 3.64305 8.49286 3.10891 8.88668 2.71508C9.28051 2.32126 9.81465 2.10001 10.3716 2.10001C10.9286 2.10001 11.4627 2.32126 11.8565 2.71508C12.2504 3.10891 12.4716 3.64305 12.4716 4.20001ZM9.62261 11.9C9.65481 11.6711 9.67161 11.438 9.67161 11.2C9.67323 10.1002 9.30322 9.03212 8.62161 8.16901C9.15367 7.86182 9.75721 7.7001 10.3716 7.70009C10.986 7.70009 11.5895 7.8618 12.1216 8.16898C12.6536 8.47616 13.0955 8.91798 13.4027 9.45004C13.7099 9.98209 13.8716 10.5856 13.8716 11.2V11.9H9.62261ZM4.77161 7.70001C5.69986 7.70001 6.5901 8.06875 7.24648 8.72513C7.90286 9.38151 8.27161 10.2717 8.27161 11.2V11.9H1.27161V11.2C1.27161 10.2717 1.64036 9.38151 2.29673 8.72513C2.95311 8.06875 3.84335 7.70001 4.77161 7.70001Z" fill="#212121"/>
</svg>
